<svg width="97" height="103" viewBox="0 0 97 103" fill="none" xmlns="http://www.w3.org/2000/svg">
<path d="M20.5307 38.681C18.7053 38.681 22.1499 52.4221 22.4587 53.5766C25.9171 66.5065 35.5573 70.8707 48.1689 71.5966C56.1365 72.0553 65.214 71.3361 70.9456 64.8918C71.9681 63.7422 78.786 53.925 76.9303 53.007M46.4778 76.2218C45.5 78.5001 45.1064 81.0001 45.0153 83.4026C44.83 88.2919 43.5916 102.905 43.5916 98.0117M54.453 4.24957C54.4327 3.89875 51.4795 5.20199 51.0316 6.00009C47.6895 11.9544 46.5395 19.944 46.1507 26.6236C45.9239 30.521 45.2846 38.2281 51.0316 38.3757C55.8042 38.4984 59.5983 34.6683 61.7452 30.7301C64.9991 24.7616 65.0355 13.0988 62.5 8.50009C62.0355 7.09883 54.3954 3.25411 54.453 4.24957Z" stroke="#FF7300" stroke-width="7.2" stroke-linecap="round" stroke-linejoin="round"/>
</svg>
