<svg width="143" height="448" viewBox="0 0 143 448" fill="none" xmlns="http://www.w3.org/2000/svg">
<g clip-path="url(#clip0_25_199)">
<path d="M51.4003 282.5C50.2003 316.9 8.90034 347.833 -15.5997 359L-16.0996 -110.5C29.4004 -116.5 146.9 -97.5 142.9 -10.5C139.7 59.1 76.567 93.5 45.4004 102C35.9003 106.5 16.9003 125 16.9003 163C16.9003 210.5 52.9003 239.5 51.4003 282.5Z" fill="#FFBD7F"/>
<path d="M-15.4168 126C-2.78061 130.895 35.6723 145.509 41.7376 152.221C49.3193 160.612 82.5622 183.163 96.5592 216.202C110.556 249.241 118.721 272.316 94.8096 336.821C75.6804 388.425 12.966 415.311 -16 422.303M-7.25187 141.733C1.88506 143.831 23.4249 151.173 36.4888 163.759C52.8186 179.492 77.3134 195.225 80.2294 209.384C83.1454 223.544 89.5607 249.765 93.06 253.961C96.5592 258.156 107.64 295.391 104.141 326.857C100.642 358.322 66.8156 387.166 55.7346 396.081C46.8699 403.214 5.38431 424.925 -14.8336 434.889M-7.25187 153.795C-2.97501 154.494 9.19461 158.41 23.6582 168.479C41.7376 181.065 38.8216 174.772 46.9865 181.59C55.1514 188.407 68.5652 203.091 74.3973 216.202C80.2294 229.313 108.223 263.925 100.642 308.502C93.06 353.078 93.06 373.531 69.1484 392.935C50.0192 408.458 5.18991 436.113 -14.8336 448" stroke="black" stroke-width="2"/>
</g>
<defs>
<clipPath id="clip0_25_199">
<rect width="143" height="448" fill="white"/>
</clipPath>
</defs>
</svg>
