<svg width="101" height="96" viewBox="0 0 101 96" fill="none" xmlns="http://www.w3.org/2000/svg">
<path d="M9.42962 9.19653C7.6874 9.10894 8.78338 11.2186 7.49976 10.0002C3.49694 6.20099 14.6304 7.40394 20.1461 7.58723C44.1409 8.38459 68.1681 7.40544 92.143 7.40544C101.835 7.40544 94.0442 60.3391 93.9462 67.0278C93.8758 71.8284 95.022 82.1142 88.2442 82.1142C62.6556 82.1142 37.2729 77.2921 11.7274 77.2921M6.39008 8.00004C4.98956 8.00004 3.99115 50.6124 4.23531 54.7759C4.58561 60.7494 4.99976 69.5002 8.49976 76.5002M41.1684 37.7156C38.1145 30.5856 40.7575 42.7796 41.4132 48.7045M41.4132 48.7045C41.4995 49.4838 41.5513 50.1547 41.5513 50.6588C41.5513 52.8746 41.4882 51.4931 41.4132 48.7045ZM41.4132 48.7045C41.3035 44.6241 41.1684 37.5309 41.1684 34.2884C41.1684 31.2261 62.1976 37.368 62.3514 40.6433C62.3923 41.5143 45.2386 52.1494 42.8199 53.0775M39.254 91.0012C39.3896 92.1403 51.2178 90.6918 52.5861 90.4845" stroke="#0095FF" stroke-width="6.515" stroke-linecap="round" stroke-linejoin="round"/>
</svg>
